# xmcd
#
# Track frame offsets: 
#        150
#        10010
#        23997
#        45475
#        64610
#        76255
#        88925
#        105732
#        116557
#        127075
#        137815
#        147580
#
# Disc length: 2186 seconds
#
# Revision: 0
# Processed by: cddbd v1.4PL0 Copyright (c) Steve Scherf et al.
# Submitted via: ExactAudioCopy v0.90b4
#
DISCID=a308880c
DTITLE=Josh Graves - Sultan Of Slide
DYEAR=2000
DGENRE=Bluegrass
TTITLE0=Panhandle Rag
TTITLE1=Come Walk With Me
TTITLE2=Down South In New Orleans
TTITLE3=Great Big Woman
TTITLE4=Evelina
TTITLE5=Satisfied Mind
TTITLE6=Fireball Mail
TTITLE7=Step It Up And Go
TTITLE8=Fireball
TTITLE9=Carolina Sunshine Girl
TTITLE10=Someday I'll Sober Up
TTITLE11=Bright Side Of The Road
EXTD=
EXTT0=
EXTT1=
EXTT2=
EXTT3=
EXTT4=
EXTT5=
EXTT6=
EXTT7=
EXTT8=
EXTT9=
EXTT10=
EXTT11=
PLAYORDER=
